<?xml version="1.0" encoding="utf-8"?>
<!-- Generator: Adobe Illustrator 16.0.0, SVG Export Plug-In . SVG Version: 6.00 Build 0)  -->
<!DOCTYPE svg PUBLIC "-//W3C//DTD SVG 1.1//EN" "http://www.w3.org/Graphics/SVG/1.1/DTD/svg11.dtd">
<svg version="1.1" id="Layer_1" xmlns="http://www.w3.org/2000/svg" xmlns:xlink="http://www.w3.org/1999/xlink" x="0px" y="0px"
	 width="512px" height="512px" viewBox="0 0 512 512" enable-background="new 0 0 512 512" xml:space="preserve">
<g>
	<polygon points="90.477,48 0.008,48 0.008,80 69.539,80 181.539,336 447.992,336 447.992,304 202.477,304 	"/>
	<path d="M160.008,112l64,160h223.984l64-160H160.008z M426.367,240H245.68l-38.406-96h257.469L426.367,240z"/>
	<path d="M240.008,368c-26.516,0-48,21.5-48,48s21.484,48,48,48c26.5,0,47.984-21.5,47.984-48S266.508,368,240.008,368z
		 M240.008,432c-8.828,0-16-7.188-16-16s7.172-16,16-16s16,7.188,16,16S248.836,432,240.008,432z"/>
	<path d="M399.992,368c-26.5,0-48,21.5-48,48s21.5,48,48,48s48-21.5,48-48S426.492,368,399.992,368z M399.992,432
		c-8.813,0-16-7.188-16-16s7.188-16,16-16s16,7.188,16,16S408.805,432,399.992,432z"/>
</g>
</svg>
