<svg xmlns="http://www.w3.org/2000/svg" width="512" height="512"><path d="M90.477 48H.008v32h69.531l112 256h266.453v-32H202.477z"/><path d="M160.008 112l64 160h223.984l64-160H160.008zm266.359 128H245.68l-38.406-96h257.469l-38.376 96zM240.008 368c-26.516 0-48 21.5-48 48s21.484 48 48 48c26.5 0 47.984-21.5 47.984-48s-21.484-48-47.984-48zm0 64c-8.828 0-16-7.188-16-16s7.172-16 16-16 16 7.188 16 16-7.172 16-16 16zm159.984-64c-26.5 0-48 21.5-48 48s21.5 48 48 48 48-21.5 48-48-21.5-48-48-48zm0 64c-8.813 0-16-7.188-16-16s7.188-16 16-16 16 7.188 16 16-7.187 16-16 16z"/></svg>